<svg width="200" height="200" viewBox="0 0 200 200" fill="none" xmlns="http://www.w3.org/2000/svg">
<path d="M158.869 30.534C149.501 37.0885 137.557 43.76 126.783 46.4521C118.938 47.5055 112.848 38.9612 116.244 31.9386C120.109 18.4784 94.9318 23.5113 87.5544 23.9795C74.6733 27.2568 92.7069 43.0578 74.4391 47.2714C63.5487 48.91 65.4223 38.1419 57.9278 36.7374C46.6861 40.8339 42.4705 47.2714 36.147 57.2202C33.4537 65.2963 49.6137 61.4338 45.6322 76.2984C36.0299 97.8346 18.4647 62.8383 24.0856 112.933C26.896 125.106 43.5244 108.252 46.569 127.096C47.1545 143.131 24.6711 133.299 42.7047 151.792L69.638 125.106C40.2456 88.7052 88.7255 40.1317 125.261 69.3928L174.561 20C173.741 20 165.661 25.6181 158.869 30.534Z" fill="white"/>
<path d="M41.4168 169.583C50.7849 163.029 62.7292 156.357 73.5025 153.665C81.3483 152.612 87.4376 161.156 84.0416 168.179C80.1773 181.639 105.354 176.606 112.731 176.138C125.613 172.86 107.579 157.059 125.847 152.846C136.737 151.207 134.864 161.975 142.358 163.38C153.6 159.283 157.815 152.846 164.139 142.897C166.832 134.821 150.672 138.683 154.654 123.819C164.256 102.282 181.821 137.279 176.2 87.1837C173.39 75.0111 156.762 91.8655 153.717 73.0213C153.131 56.9862 175.615 66.818 157.581 48.3249L130.648 75.0111C160.04 111.412 111.56 159.985 75.0249 130.724L25.6082 180C26.4279 180 34.5078 174.382 41.4168 169.583Z" fill="white"/>
</svg>
