<svg width="706" height="200" viewBox="0 0 706 200" fill="none" xmlns="http://www.w3.org/2000/svg">
<path d="M155.729 30.534C146.37 37.0885 134.438 43.7601 123.676 46.4521C115.838 47.5055 109.755 38.9612 113.148 31.9386C117.008 18.4784 91.8575 23.5113 84.4877 23.9795C71.6199 27.2568 89.6349 43.0578 71.386 47.2714C60.5068 48.91 62.3785 38.1419 54.8918 36.7374C43.6617 40.834 39.4504 47.2714 33.1334 57.2202C30.4429 65.2963 46.5862 61.4338 42.6088 76.2985C33.0165 97.8347 15.4694 62.8383 21.0845 112.933C23.892 125.106 40.5032 108.252 43.5447 127.096C44.1296 143.131 21.6694 133.299 39.6843 151.792L66.5898 125.106C37.2277 88.7052 85.6575 40.1317 122.155 69.3928L171.404 20C170.585 20 162.514 25.6181 155.729 30.534Z" fill="url(#paint0_linear_6_153)"/>
<path d="M38.3976 169.583C47.756 163.029 59.6879 156.357 70.4501 153.665C78.2878 152.612 84.3708 161.156 80.9783 168.179C77.118 181.639 102.269 176.606 109.638 176.138C122.506 172.86 104.491 157.059 122.74 152.846C133.619 151.207 131.748 161.975 139.235 163.38C150.465 159.283 154.676 152.846 160.993 142.897C163.683 134.821 147.54 138.683 151.517 123.819C161.11 102.282 178.657 137.279 173.042 87.1837C170.234 75.011 153.623 91.8655 150.582 73.0213C149.997 56.9862 172.457 66.8179 154.442 48.3249L127.536 75.011C156.899 111.412 108.469 159.985 71.9709 130.724L22.6052 180C23.4241 180 31.4957 174.382 38.3976 169.583Z" fill="url(#paint1_linear_6_153)"/>
<path d="M189.068 70.2122H210.592V78.4053H211.762C215.74 70.9144 222.173 68.5735 239.72 68.5735C255.396 68.5735 263.584 70.3292 268.732 75.2451C273.645 79.5758 275.048 85.428 275.048 100.878C275.048 127.447 269.082 132.597 238.785 132.597C223.343 132.597 217.494 130.373 213.049 123.233H211.996V156.474H189.185V70.2122H189.068ZM211.879 101.346C211.879 113.168 215.272 115.508 232.117 115.508C240.89 115.508 246.271 114.572 248.728 112.816C251.418 110.827 252.237 107.666 252.237 99.7074C252.237 88.003 249.196 85.7791 232.936 85.7791C214.57 85.7791 211.879 87.7689 211.879 101.346Z" fill="#020202"/>
<path d="M363.72 111.646C362.082 128.5 353.659 132.597 321.139 132.597C303.475 132.597 295.169 131.075 289.554 126.979C283.588 122.414 281.833 116.445 281.833 100.878C281.833 84.4916 283.588 78.5223 290.022 73.9576C295.988 69.861 303.475 68.5735 323.361 68.5735C343.95 68.5735 351.203 69.861 356.701 74.3087C362.082 78.8735 364.188 85.6621 364.188 99.4733C364.188 100.293 364.188 103.102 364.071 105.677H304.645C304.645 111.88 305.347 113.87 307.452 115.625C309.909 117.381 314.705 118.2 322.894 118.2C337.399 118.2 340.09 117.147 341.025 111.763H363.72V111.646ZM341.259 93.1529C341.142 88.3541 340.908 87.1837 339.505 85.7791C337.399 83.5553 332.837 82.736 323.829 82.736C308.505 82.736 304.879 84.7257 304.645 93.1529H341.259Z" fill="#020202"/>
<path d="M394.251 70.2121V79.4586H395.421C399.516 71.6166 406.534 68.6905 421.274 68.6905C435.779 68.6905 443.266 70.7973 448.647 76.2984C454.145 82.1506 455.315 86.7154 455.315 103.453V131.192H432.504V103.453C432.504 93.621 432.153 91.5142 429.696 89.1733C427.24 86.7154 422.912 85.779 414.372 85.779C406.066 85.779 401.504 86.9495 398.814 89.7585C396.006 92.6846 395.421 95.6108 395.421 106.73V131.075H372.61V70.2121H394.251Z" fill="#020202"/>
<path d="M573.816 98.0689C573.933 102.985 574.05 104.857 574.05 106.145C574.05 120.073 570.424 126.394 560.948 129.437C554.046 131.661 544.571 132.363 525.62 132.363C492.047 132.363 481.168 131.31 474.266 127.33C468.651 124.053 466.077 119.371 465.024 110.593C464.674 106.73 464.44 99.7075 464.44 88.7053C464.44 69.51 464.907 62.4873 466.896 57.6885C471.575 46.1011 480.934 43.8772 525.854 43.8772C548.782 43.8772 556.737 44.8136 562.703 47.8567C570.073 51.6022 572.646 57.9226 572.646 71.7338V75.9475H546.56C546.326 70.3293 546.092 69.1588 544.454 67.8713C542.465 66.2327 534.979 65.4134 518.484 65.4134C502.107 65.4134 497.428 65.8816 494.854 67.9884C491.813 70.5634 490.76 75.5963 490.76 88.5883C490.76 110.593 491.111 110.827 518.718 110.827C547.378 110.827 547.846 110.71 547.963 97.9518H573.816V98.0689Z" fill="#020202"/>
<path d="M583.057 45.2816H641.898C658.159 45.2816 660.381 45.3987 665.177 46.1009C681.438 48.5589 686 55.4645 686 77.4689C686 96.5472 682.491 104.038 672.196 107.666C666.347 109.656 660.615 110.124 642.132 110.124H609.144V131.075H583.057V45.2816ZM641.898 88.5881C653.947 88.4711 654.532 88.4711 656.638 87.1836C659.095 85.662 659.913 83.3211 659.913 77.3518C659.913 71.1485 658.744 68.5735 655.468 67.403C653.713 66.7008 653.362 66.7008 642.015 66.5838H609.378V88.4711H641.898V88.5881Z" fill="#020202"/>
<defs>
<linearGradient id="paint0_linear_6_153" x1="27.177" y1="162.972" x2="178.984" y2="12.0515" gradientUnits="userSpaceOnUse">
<stop stop-color="#B61557"/>
<stop offset="0.342271" stop-color="#F41C09"/>
<stop offset="0.483141" stop-color="#F69904"/>
<stop offset="0.609074" stop-color="#FCE200"/>
<stop offset="1" stop-color="#3FBE1A"/>
</linearGradient>
<linearGradient id="paint1_linear_6_153" x1="178.098" y1="24.0161" x2="8.61914" y2="195.007" gradientUnits="userSpaceOnUse">
<stop stop-color="#010202"/>
<stop offset="0.243712" stop-color="#52BC32"/>
<stop offset="0.421875" stop-color="#0D86A8"/>
<stop offset="0.65542" stop-color="#682686"/>
<stop offset="1" stop-color="#E4006C"/>
</linearGradient>
</defs>
</svg>
