<svg width="855" height="205" viewBox="0 0 855 205" fill="none" xmlns="http://www.w3.org/2000/svg">
<path d="M174.365 13.4967C162.343 21.8947 147.014 30.4426 133.189 33.8917C123.12 35.2414 115.305 24.2941 119.664 15.2963C124.623 -1.94951 92.3125 4.49889 82.8449 5.09875C66.3141 9.29772 89.4573 29.5428 66.0136 34.9415C52.0375 37.041 54.442 23.2444 44.8241 21.4448C30.3972 26.6935 24.9871 34.9415 16.872 47.6884C13.4156 58.0359 34.1542 53.0871 29.0447 72.1324C16.7217 99.7257 -5.82026 54.8866 1.39318 119.071C4.9999 134.667 26.3396 113.072 30.2469 137.217C30.9983 157.762 2.14459 145.165 25.2877 168.859L59.8521 134.667C22.1318 88.0286 84.3477 25.7937 131.235 63.2846L194.503 0C193.451 0 183.082 7.19824 174.365 13.4967Z" fill="url(#paint0_linear_6_90)"/>
<path d="M23.6346 191.653C35.657 183.255 50.9855 174.707 64.8113 171.258C74.8801 169.909 82.6946 180.856 78.3365 189.854C73.3772 207.1 105.687 200.651 115.155 200.051C131.686 195.852 108.543 175.607 131.986 170.209C145.962 168.109 143.558 181.906 153.176 183.705C167.603 178.457 173.013 170.209 181.128 157.462C184.584 147.114 163.846 152.063 168.955 133.018C181.278 105.424 203.82 150.263 196.607 86.079C193 70.4828 171.66 92.0776 167.753 67.9335C167.002 47.3885 195.855 59.9854 172.712 36.2912L138.148 70.4828C175.868 117.121 113.652 179.356 66.765 141.865L3.3468 205C4.39876 205 14.7681 197.802 23.6346 191.653Z" fill="url(#paint1_linear_6_90)"/>
<path d="M217.283 64.3343H244.876V74.8317H246.376C251.475 65.2341 259.723 62.2348 282.217 62.2348C302.312 62.2348 312.81 64.4843 319.408 70.7828C325.707 76.3314 327.506 83.8296 327.506 103.625C327.506 137.666 319.858 144.265 281.017 144.265C261.222 144.265 253.724 141.415 248.025 132.268H246.676V174.857H217.433V64.3343H217.283ZM246.526 104.225C246.526 119.371 250.875 122.37 272.47 122.37C283.717 122.37 290.615 121.17 293.764 118.921C297.213 116.372 298.263 112.323 298.263 102.125C298.263 87.1288 294.364 84.2795 273.519 84.2795C249.975 84.2795 246.526 86.8288 246.526 104.225Z" fill="#020202"/>
<path d="M441.178 117.421C439.079 139.016 428.282 144.265 386.592 144.265C363.947 144.265 353.3 142.315 346.102 137.067C338.453 131.218 336.204 123.57 336.204 103.625C336.204 82.6299 338.453 74.9817 346.701 69.1332C354.35 63.8844 363.947 62.2348 389.441 62.2348C415.835 62.2348 425.132 63.8844 432.181 69.583C439.079 75.4316 441.778 84.1295 441.778 101.825C441.778 102.875 441.778 106.474 441.628 109.773H365.447C365.447 117.721 366.347 120.271 369.046 122.52C372.195 124.77 378.344 125.819 388.841 125.819C407.437 125.819 410.886 124.47 412.086 117.571H441.178V117.421ZM412.385 93.7271C412.235 87.5786 411.936 86.079 410.136 84.2795C407.437 81.4302 401.588 80.3804 390.041 80.3804C370.396 80.3804 365.747 82.9298 365.447 93.7271H412.385Z" fill="#020202"/>
<path d="M480.319 64.3343V76.1815H481.819C487.067 66.1339 496.065 62.3848 514.96 62.3848C533.556 62.3848 543.154 65.0841 550.052 72.1324C557.1 79.6306 558.6 85.4792 558.6 106.924V142.465H529.357V106.924C529.357 94.327 528.907 91.6277 525.758 88.6284C522.609 85.4792 517.06 84.2795 506.113 84.2795C495.465 84.2795 489.617 85.7791 486.167 89.3782C482.568 93.1273 481.819 96.8764 481.819 111.123V142.315H452.576V64.3343H480.319Z" fill="#020202"/>
<path d="M710.513 100.026C710.663 106.324 710.813 108.724 710.813 110.373C710.813 128.219 706.164 136.317 694.017 140.216C685.169 143.065 673.022 143.965 648.728 143.965C605.688 143.965 591.742 142.615 582.894 137.516C575.696 133.317 572.396 127.319 571.047 116.072C570.597 111.123 570.297 102.125 570.297 88.0286C570.297 63.4346 570.897 54.4368 573.446 48.2883C579.445 33.4419 591.442 30.5925 649.028 30.5925C678.421 30.5925 688.618 31.7923 696.266 35.6913C705.714 40.4902 709.013 48.5882 709.013 66.2839V71.6826H675.571C675.271 64.4843 674.971 62.9846 672.872 61.335C670.323 59.2356 660.725 58.1858 639.58 58.1858C618.585 58.1858 612.587 58.7857 609.287 61.485C605.388 64.7842 604.039 71.2326 604.039 87.8786C604.039 116.072 604.489 116.372 639.88 116.372C676.621 116.372 677.221 116.222 677.371 99.8757H710.513V100.026Z" fill="#020202"/>
<path d="M722.36 32.3921H797.792C818.636 32.3921 821.486 32.5421 827.634 33.4419C848.479 36.5911 854.328 45.4389 854.328 73.6321C854.328 98.0761 849.829 107.674 836.632 112.323C829.134 114.872 821.786 115.472 798.091 115.472H755.802V142.315H722.36V32.3921ZM797.792 87.8786C813.238 87.7286 813.988 87.7286 816.687 86.079C819.836 84.1295 820.886 81.1302 820.886 73.4821C820.886 65.534 819.386 62.2348 815.187 60.7352C812.938 59.8354 812.488 59.8354 797.941 59.6855H756.102V87.7286H797.792V87.8786Z" fill="#020202"/>
<defs>
<linearGradient id="paint0_linear_6_90" x1="9.22004" y1="183.183" x2="203.725" y2="-10.7012" gradientUnits="userSpaceOnUse">
<stop stop-color="#B61557"/>
<stop offset="0.342271" stop-color="#F41C09"/>
<stop offset="0.483141" stop-color="#F69904"/>
<stop offset="0.609074" stop-color="#FCE200"/>
<stop offset="1" stop-color="#3FBE1A"/>
</linearGradient>
<linearGradient id="paint1_linear_6_90" x1="203.102" y1="5.1456" x2="-14.0365" y2="224.805" gradientUnits="userSpaceOnUse">
<stop stop-color="#010202"/>
<stop offset="0.243712" stop-color="#52BC32"/>
<stop offset="0.421875" stop-color="#0D86A8"/>
<stop offset="0.65542" stop-color="#682686"/>
<stop offset="1" stop-color="#E4006C"/>
</linearGradient>
</defs>
</svg>
